# xmcd
#
# Track frame offsets:
#	150
#	13112
#	26837
#	38725
#	53312
#	67487
#	77900
#	89087
#	104687
#	117300
#	136887
#	149400
#	166037
#	188762
#
# Disc length: 2805 seconds
#
# Revision: 2
# Processed by: cddbd v1.5.2PL0 Copyright (c) Steve Scherf et al.
# Submitted via: EasyCDDAExtractor 15.2.5.1
#
DISCID=c50af30e
DTITLE=HK - 醒獅 Lion Dancer -  Lion Dancer
DYEAR=1994
DGENRE=中樂
TTITLE0=旱天雷
TTITLE1=紫竹調
TTITLE2=花好月圓
TTITLE3=採茶撲蝶
TTITLE4=娛樂昇平
TTITLE5=金蛇狂舞
TTITLE6=步步高
TTITLE7=京調
TTITLE8=醒獅
TTITLE9=掛紅燈
TTITLE10=喜洋洋
TTITLE11=雨打芭蕉
TTITLE12=正月十五鬧花燈
TTITLE13=百烏朝鳳
EXTD=HK - ¿ô·à Lion Dancer\n¤¤¼Ö - ¤W®ü￥Á±Ú¼Ö1Î - ®L-¸¶3\n
EXTT0=
EXTT1=
EXTT2=
EXTT3=
EXTT4=
EXTT5=
EXTT6=
EXTT7=
EXTT8=
EXTT9=
EXTT10=
EXTT11=
EXTT12=
EXTT13=
PLAYORDER=
